<svg width="225" height="226" viewBox="0 0 225 226" fill="none" xmlns="http://www.w3.org/2000/svg">
<g filter="url(#filter0_d_138_0)">
<circle cx="112.5" cy="109.5" r="84.5" fill="white"/>
</g>
<path d="M75.2629 172.282C74.7298 171.965 74.3915 171.526 74.248 170.963C74.102 170.4 74.1872 169.851 74.5037 169.318C74.8354 168.759 75.305 168.411 75.9126 168.273C76.516 168.137 77.1294 168.254 77.7527 168.624C78.0154 168.78 78.2495 168.96 78.4549 169.166C78.6593 169.367 78.8123 169.555 78.9138 169.731C79.0127 169.904 79.0944 170.066 79.1588 170.216C79.2217 170.368 79.2572 170.49 79.2654 170.582L79.2938 170.719L78.1341 171.044C78.1225 170.982 78.1029 170.9 78.0752 170.8C78.0434 170.701 77.9473 170.535 77.7869 170.3C77.6266 170.066 77.4305 169.88 77.1987 169.742C76.9025 169.566 76.6233 169.508 76.361 169.569C76.0947 169.63 75.8852 169.79 75.7323 170.047C75.5794 170.305 75.5411 170.575 75.6175 170.857C75.6913 171.137 75.866 171.359 76.1416 171.523C76.3322 171.636 76.5236 171.701 76.7158 171.718C76.9079 171.734 77.0551 171.724 77.1571 171.687L77.3086 171.625L78.0934 172.196L76.0161 175.247L72.6547 173.252L73.267 172.22L75.5581 173.58L76.2492 172.601C75.96 172.607 75.6313 172.5 75.2629 172.282Z" fill="#FE8B5E"/>
<path d="M68.8087 166.736L70.9238 164.066L71.8956 164.837L69.0942 168.372L65.7771 165.743L68.5786 162.208L69.554 162.981L67.4389 165.65L68.8087 166.736Z" fill="#FE8B5E"/>
<path d="M64.4489 162.605C64.7662 162.586 65.0406 162.453 65.2721 162.206C65.5015 161.962 65.6154 161.68 65.6136 161.363C65.6098 161.047 65.4986 160.787 65.2801 160.582C65.0616 160.377 64.7948 160.283 64.4796 160.299C64.1623 160.318 63.889 160.45 63.6595 160.694C63.428 160.941 63.3132 161.224 63.3149 161.541C63.3167 161.859 63.4268 162.121 63.6453 162.325C63.8638 162.53 64.1317 162.623 64.4489 162.605ZM62.1186 161.504C62.0908 160.837 62.2909 160.275 62.7191 159.819C63.1473 159.362 63.6959 159.125 64.3649 159.108C65.0298 159.091 65.5971 159.302 66.0668 159.743C66.5366 160.183 66.7854 160.737 66.8132 161.403C66.839 162.072 66.6378 162.635 66.2096 163.092C65.7815 163.548 65.2339 163.784 64.5669 163.799C63.8978 163.817 63.3284 163.605 62.8586 163.165C62.3889 162.724 62.1422 162.17 62.1186 161.504Z" fill="#FE8B5E"/>
<path d="M62.7609 157.4C62.7367 158.073 62.4928 158.62 62.0293 159.04C61.5657 159.461 60.9988 159.65 60.3288 159.607C59.6565 159.565 59.0979 159.3 58.6531 158.81C58.4961 158.637 58.3715 158.45 58.2794 158.251C58.1831 158.051 58.1229 157.871 58.0989 157.711C58.0726 157.553 58.0575 157.405 58.0536 157.267C58.0497 157.129 58.0561 157.02 58.0727 156.94L58.0972 156.827L59.2015 156.88C59.1866 156.926 59.1727 156.993 59.1599 157.082C59.1451 157.168 59.1602 157.316 59.2052 157.526C59.2459 157.736 59.3347 157.916 59.4715 158.067C59.6909 158.309 59.97 158.436 60.3086 158.448C60.6453 158.458 60.9412 158.347 61.1963 158.116C61.4491 157.886 61.5859 157.602 61.6065 157.264C61.6272 156.926 61.5288 156.637 61.3114 156.397C61.1746 156.246 61.0081 156.137 60.8122 156.068C60.6142 155.997 60.4504 155.963 60.3208 155.968L60.1262 155.98L60.21 154.909C60.2398 154.907 60.2824 154.902 60.3378 154.897C60.389 154.891 60.4916 154.894 60.6458 154.908C60.7977 154.924 60.9478 154.954 61.0963 154.997C61.2425 155.042 61.4126 155.12 61.6065 155.232C61.7962 155.343 61.9696 155.485 62.1266 155.658C62.5714 156.148 62.7828 156.728 62.7609 157.4Z" fill="#FE8B5E"/>
<path d="M56.1748 155.723L53.9571 152.843L57.531 150.091L58.2876 151.074L55.5894 153.152L56.3186 154.098L56.5393 153.928C57.2061 153.415 57.7803 153.063 58.262 152.874C58.7394 152.684 59.1155 152.625 59.3902 152.697C59.6607 152.768 59.9011 152.941 60.1112 153.213C60.1788 153.301 60.2349 153.396 60.2793 153.498C60.3243 153.596 60.3552 153.67 60.372 153.721L60.3929 153.807L59.5172 154.482C59.4843 154.39 59.4404 154.308 59.3856 154.237C59.2741 154.093 59.1496 154.007 59.0121 153.981C58.8722 153.956 58.6537 154.018 58.3567 154.168C58.0554 154.317 57.6568 154.582 57.1608 154.964L56.1748 155.723Z" fill="#FE8B5E"/>
<path d="M56.3311 147.765L55.9877 147.821L53.1927 151.718L52.4908 150.637L54.4262 148.122L51.339 148.861L50.6396 147.784L55.6292 146.683C56.7797 146.426 57.5604 146.613 57.9713 147.247C58.0446 147.36 58.1071 147.478 58.1588 147.602C58.2104 147.725 58.2433 147.82 58.2574 147.886L58.2799 147.978L57.3566 148.577C57.34 148.442 57.2819 148.297 57.1825 148.144C56.9787 147.83 56.6949 147.703 56.3311 147.765Z" fill="#FE8B5E"/>
<path d="M48.3479 143.591L49.3561 143.037L50.3315 144.813L53.2771 143.195L53.874 144.282L49.9203 146.454L48.3479 143.591Z" fill="#FE8B5E"/>
<path d="M46.1727 135.526L47.1971 135.111L48.4403 138.18L47.4159 138.595L46.1727 135.526Z" fill="#FE8B5E"/>
<path d="M42.902 128.301C42.7439 127.702 42.811 127.151 43.1031 126.65C43.3946 126.145 43.84 125.814 44.4395 125.656C45.068 125.491 45.647 125.572 46.1765 125.9C46.7023 126.226 47.0576 126.739 47.2423 127.44C47.3202 127.736 47.3603 128.029 47.3626 128.319C47.367 128.606 47.3439 128.848 47.2934 129.044C47.2421 129.237 47.1869 129.409 47.1278 129.561C47.0658 129.714 47.0055 129.826 46.9469 129.897L46.871 130.015L45.8163 129.433C45.8519 129.38 45.895 129.309 45.9454 129.218C45.9922 129.125 46.0406 128.939 46.0908 128.659C46.141 128.38 46.1317 128.109 46.063 127.849C45.9752 127.516 45.8167 127.279 45.5875 127.138C45.3546 126.995 45.0934 126.961 44.8038 127.038C44.5141 127.114 44.2976 127.28 44.1541 127.534C44.0098 127.786 43.9785 128.067 44.0603 128.377C44.1168 128.591 44.2077 128.772 44.3331 128.918C44.4585 129.065 44.5705 129.161 44.6691 129.206L44.8203 129.268L44.9797 130.225L41.3589 130.943L40.3624 127.163L41.5224 126.857L42.2016 129.434L43.3812 129.22C43.1709 129.022 43.0112 128.715 42.902 128.301Z" fill="#FE8B5E"/>
<path d="M42.1918 119.821L45.5715 119.402L45.724 120.633L41.2475 121.187L40.7269 116.987L45.2034 116.433L45.3565 117.668L41.9768 118.086L42.1918 119.821Z" fill="#FE8B5E"/>
<path d="M41.9822 113.819C42.2214 114.028 42.5101 114.126 42.8483 114.112C43.1835 114.099 43.4619 113.978 43.6836 113.75C43.9022 113.523 44.0055 113.259 43.9935 112.96C43.9815 112.661 43.8573 112.406 43.6211 112.197C43.3818 111.988 43.0946 111.89 42.7594 111.903C42.4213 111.917 42.1413 112.038 41.9197 112.265C41.698 112.493 41.5932 112.757 41.6053 113.056C41.6173 113.355 41.7429 113.609 41.9822 113.819ZM41.0935 111.399C41.5412 110.905 42.0778 110.645 42.7033 110.62C43.3288 110.594 43.8861 110.81 44.3751 111.267C44.861 111.721 45.1168 112.27 45.1427 112.914C45.1686 113.557 44.9577 114.126 44.51 114.621C44.0592 115.116 43.5211 115.375 42.8956 115.401C42.2701 115.426 41.7144 115.21 41.2284 114.753C40.7394 114.296 40.4819 113.746 40.456 113.102C40.4301 112.459 40.6426 111.891 41.0935 111.399Z" fill="#FE8B5E"/>
<path d="M44.4298 108.924C43.9404 109.387 43.383 109.606 42.7575 109.581C42.132 109.555 41.5956 109.292 41.1482 108.791C40.6979 108.291 40.4861 107.709 40.5129 107.048C40.5223 106.815 40.5642 106.595 40.6385 106.388C40.71 106.178 40.7933 106.007 40.8886 105.876C40.9808 105.745 41.0739 105.629 41.168 105.528C41.262 105.427 41.3429 105.354 41.4107 105.308L41.5077 105.245L42.2571 106.058C42.2143 106.08 42.1573 106.118 42.0861 106.172C42.0151 106.223 41.922 106.339 41.8067 106.52C41.6886 106.699 41.6254 106.889 41.6172 107.093C41.604 107.419 41.7138 107.705 41.9466 107.951C42.1796 108.195 42.4682 108.323 42.8123 108.337C43.1535 108.351 43.4501 108.245 43.7021 108.018C43.9541 107.791 44.0866 107.517 44.0997 107.193C44.1079 106.99 44.0664 106.795 43.975 106.608C43.8837 106.419 43.7904 106.28 43.6951 106.192L43.5473 106.065L44.3583 105.36C44.3815 105.379 44.4149 105.406 44.4584 105.441C44.4991 105.472 44.5695 105.547 44.6697 105.665C44.7668 105.783 44.8531 105.909 44.9286 106.044C45.0011 106.179 45.0674 106.354 45.1277 106.569C45.185 106.782 45.209 107.004 45.1995 107.238C45.1727 107.899 44.9162 108.461 44.4298 108.924Z" fill="#FE8B5E"/>
<path d="M40.911 103.11L41.3502 99.502L45.828 100.047L45.6781 101.278L42.2975 100.867L42.1531 102.053L42.4296 102.087C43.2651 102.188 43.9209 102.34 44.3971 102.543C44.8707 102.743 45.1801 102.964 45.3254 103.208C45.4681 103.449 45.5187 103.74 45.477 104.082C45.4636 104.192 45.437 104.299 45.3973 104.403C45.3608 104.504 45.3306 104.579 45.3066 104.627L45.2611 104.703L44.164 104.57C44.205 104.481 44.2309 104.392 44.2417 104.303C44.2638 104.122 44.2351 103.973 44.1556 103.858C44.0731 103.742 43.8736 103.634 43.5571 103.532C43.238 103.427 42.7678 103.336 42.1464 103.26L40.911 103.11Z" fill="#FE8B5E"/>
<path d="M46.6055 97.5473L46.3209 97.3469L41.5954 98.164L41.8538 96.9007L44.997 96.4661L42.278 94.8276L42.5356 93.5687L46.864 96.2841C47.8645 96.9076 48.2891 97.5891 48.1379 98.3286C48.1108 98.4606 48.0724 98.5888 48.0225 98.7131C47.9726 98.8375 47.9296 98.928 47.8935 98.9848L47.8447 99.0666L46.7663 98.8459C46.8496 98.7376 46.9096 98.594 46.9462 98.415C47.0212 98.0482 46.9077 97.759 46.6055 97.5473Z" fill="#FE8B5E"/>
<path d="M43.8428 88.9732L44.9497 89.2856L44.3992 91.2357L47.6334 92.1487L47.2965 93.3421L42.9554 92.1166L43.8428 88.9732Z" fill="#FE8B5E"/>
<path d="M47.9492 81.6988L48.9704 82.1216L47.7039 85.181L46.6827 84.7582L47.9492 81.6988Z" fill="#FE8B5E"/>
<path d="M50.6854 74.2553C50.9932 73.7172 51.4271 73.3719 51.9871 73.2194C52.5485 73.0644 53.0983 73.1408 53.6365 73.4487C54.2006 73.7714 54.5563 74.2354 54.7035 74.8407C54.8496 75.4418 54.7427 76.057 54.3828 76.6862C54.2311 76.9514 54.0542 77.1883 53.852 77.397C53.6538 77.6046 53.468 77.7605 53.2945 77.8648C53.1224 77.9666 52.9621 78.0508 52.8134 78.1176C52.6622 78.1829 52.5407 78.2204 52.4489 78.23L52.3124 78.2606L51.9685 77.1063C52.031 77.0937 52.112 77.0728 52.2115 77.0435C52.31 77.0101 52.4752 76.9114 52.7071 76.7473C52.939 76.5832 53.1219 76.3841 53.2557 76.1501C53.4267 75.8511 53.48 75.571 53.4155 75.3098C53.3498 75.0446 53.187 74.8376 52.9271 74.6888C52.6671 74.5401 52.3966 74.5062 52.1157 74.587C51.8363 74.6653 51.617 74.8435 51.4579 75.1217C51.3478 75.3141 51.2861 75.5065 51.2726 75.6989C51.2592 75.8914 51.2717 76.0383 51.3103 76.1397L51.3743 76.2902L50.8167 77.0841L47.7326 75.0559L49.6735 71.663L50.7147 72.2587L49.3918 74.5713L50.3823 75.2466C50.3717 74.9575 50.4727 74.6271 50.6854 74.2553Z" fill="#FE8B5E"/>
<path d="M56.1277 67.713L58.8304 69.785L58.0759 70.7691L54.4961 68.0247L57.0711 64.6659L60.6509 67.4104L59.8937 68.398L57.191 66.326L56.1277 67.713Z" fill="#FE8B5E"/>
<path d="M60.1885 63.2874C60.2123 63.6043 60.3495 63.8766 60.6 64.1041C60.8484 64.3296 61.1314 64.4389 61.4492 64.4321C61.7647 64.4232 62.0231 64.3079 62.2245 64.0861C62.4258 63.8644 62.5157 63.596 62.4941 63.2811C62.4704 62.9642 62.3343 62.693 62.0859 62.4675C61.8353 62.24 61.5512 62.1297 61.2335 62.1365C60.9157 62.1434 60.6562 62.2577 60.4549 62.4794C60.2535 62.7012 60.1647 62.9705 60.1885 63.2874ZM61.252 60.9397C61.9181 60.9012 62.4829 61.0924 62.9463 61.5132C63.4098 61.934 63.6556 62.4787 63.6836 63.1474C63.7114 63.8119 63.5089 64.3825 63.076 64.8593C62.6431 65.336 62.0936 65.5937 61.4276 65.6322C60.7593 65.6687 60.1934 65.4765 59.7299 65.0557C59.2665 64.6349 59.0218 64.0912 58.996 63.4245C58.968 62.7558 59.1704 62.1831 59.6033 61.7063C60.0362 61.2295 60.5858 60.974 61.252 60.9397Z" fill="#FE8B5E"/>
<path d="M65.3654 61.5162C64.692 61.5028 64.1413 61.2677 63.7132 60.8109C63.2852 60.3541 63.0873 59.7904 63.1197 59.1197C63.15 58.4468 63.4067 57.8841 63.8897 57.4315C64.0602 57.2717 64.2444 57.1442 64.4425 57.0489C64.6407 56.9494 64.8197 56.8863 64.9794 56.8597C65.1372 56.831 65.285 56.8135 65.423 56.8074C65.5609 56.8013 65.6699 56.8059 65.7499 56.8212L65.8636 56.844L65.8277 57.9489C65.7816 57.9347 65.7142 57.9219 65.6255 57.9106C65.5391 57.8972 65.3913 57.9146 65.182 57.9629C64.9729 58.007 64.7941 58.0987 64.6454 58.2379C64.4072 58.4612 64.2847 58.7422 64.278 59.081C64.2734 59.4178 64.3889 59.7119 64.6244 59.9632C64.8579 60.2124 65.1439 60.3446 65.4824 60.3598C65.821 60.375 66.1083 60.272 66.3443 60.0508C66.4929 59.9116 66.6001 59.7434 66.6659 59.5464C66.7338 59.3473 66.7645 59.183 66.7581 59.0535L66.7422 58.8591L67.8144 58.9257C67.8177 58.9555 67.8226 58.998 67.8293 59.0533C67.8361 59.1044 67.8339 59.2071 67.8225 59.3614C67.8091 59.5135 67.7819 59.6642 67.7411 59.8133C67.6982 59.9602 67.6227 60.1316 67.5146 60.3272C67.4067 60.5187 67.2675 60.6943 67.097 60.854C66.614 61.3067 66.0368 61.5274 65.3654 61.5162Z" fill="#FE8B5E"/>
<path d="M66.9363 54.9039L69.7801 52.6403L72.5892 56.1696L71.619 56.9418L69.4982 54.2773L68.5631 55.0216L68.7366 55.2395C69.2607 55.898 69.6214 56.4666 69.8185 56.9451C70.0162 57.4195 70.0812 57.7945 70.0136 58.0704C69.9465 58.342 69.7782 58.585 69.5087 58.7995C69.422 58.8686 69.3281 58.9261 69.2269 58.9722C69.13 59.0187 69.056 59.0508 69.005 59.0684L68.9193 59.0907L68.231 58.2259C68.3223 58.1915 68.4031 58.1464 68.4734 58.0904C68.6164 57.9766 68.7 57.8508 68.7242 57.7128C68.7465 57.5726 68.6806 57.3551 68.5265 57.0605C68.3729 56.7617 68.1011 56.3674 67.7113 55.8776L66.9363 54.9039Z" fill="#FE8B5E"/>
<path d="M74.8963 54.9333L74.834 54.5908L70.8927 51.8586L71.963 51.1395L74.5081 53.0344L73.7195 49.9594L74.7861 49.2428L75.9666 54.2142C76.2423 55.3604 76.067 56.144 75.4404 56.5649C75.3286 56.6401 75.2112 56.7045 75.0885 56.7581C74.9657 56.8117 74.8716 56.8461 74.806 56.8613L74.7139 56.8853L74.1 55.9716C74.2353 55.9529 74.3788 55.8925 74.5305 55.7907C74.8413 55.5819 74.9632 55.2961 74.8963 54.9333Z" fill="#FE8B5E"/>
<path d="M78.9416 46.8842L79.5114 47.8833L77.7512 48.887L79.4159 51.8064L78.3387 52.4206L76.1043 48.5022L78.9416 46.8842Z" fill="#FE8B5E"/>
<path d="M86.9708 44.5798L87.4022 45.5974L84.3535 46.8896L83.9222 45.8721L86.9708 44.5798Z" fill="#FE8B5E"/>
<path d="M94.142 41.1936C94.7389 41.026 95.2904 41.0842 95.7964 41.3683C96.3053 41.6516 96.6436 42.0917 96.8112 42.6886C96.987 43.3144 96.915 43.8946 96.5954 44.4292C96.2778 44.9602 95.7702 45.3236 95.0723 45.5196C94.7782 45.6022 94.4859 45.647 94.1954 45.6539C93.9086 45.6629 93.6667 45.6437 93.4699 45.5964C93.2759 45.5482 93.1025 45.4957 92.9497 45.4391C92.7961 45.3796 92.6832 45.3211 92.6111 45.2635L92.4923 45.1896L93.0568 44.1257C93.1102 44.1605 93.1826 44.2024 93.2741 44.2513C93.3677 44.2966 93.5547 44.3421 93.8351 44.3878C94.1155 44.4335 94.3855 44.4199 94.645 44.347C94.9766 44.2539 95.211 44.0916 95.3482 43.8602C95.4875 43.625 95.5167 43.3633 95.4357 43.0749C95.3547 42.7866 95.1858 42.5727 94.9288 42.4333C94.6748 42.2931 94.3935 42.2663 94.085 42.353C93.8716 42.4129 93.6926 42.5067 93.548 42.6344C93.4034 42.7621 93.3093 42.8757 93.2657 42.9751L93.2057 43.1272L92.2515 43.3019L91.4759 39.6931L95.2391 38.6362L95.5634 39.7911L92.9984 40.5115L93.2307 41.6875C93.4259 41.4741 93.7297 41.3094 94.142 41.1936Z" fill="#FE8B5E"/>
<path d="M102.609 40.3479L103.082 43.7204L101.854 43.8927L101.228 39.4256L105.419 38.8378L106.046 43.3048L104.813 43.4777L104.34 40.1051L102.609 40.3479Z" fill="#FE8B5E"/>
<path d="M108.608 40.0418C108.403 40.2844 108.309 40.5746 108.328 40.9125C108.347 41.2475 108.472 41.5239 108.704 41.7419C108.935 41.9569 109.2 42.056 109.499 42.0391C109.798 42.0223 110.05 41.8941 110.256 41.6545C110.461 41.412 110.554 41.1232 110.535 40.7883C110.516 40.4504 110.391 40.1724 110.16 39.9545C109.929 39.7365 109.664 39.6359 109.365 39.6527C109.066 39.6696 108.813 39.7993 108.608 40.0418ZM111.013 39.1145C111.514 39.5542 111.783 40.0866 111.818 40.7116C111.853 41.3366 111.646 41.8973 111.197 42.3935C110.751 42.8866 110.206 43.1513 109.564 43.1875C108.921 43.2237 108.348 43.0219 107.846 42.5821C107.345 42.1394 107.076 41.6055 107.041 40.9805C107.006 40.3555 107.213 39.7964 107.662 39.3031C108.111 38.8068 108.657 38.5406 109.3 38.5044C109.943 38.4682 110.514 38.6716 111.013 39.1145Z" fill="#FE8B5E"/>
<path d="M113.541 42.4109C113.07 41.929 112.842 41.3751 112.858 40.7493C112.873 40.1235 113.127 39.5829 113.621 39.1276C114.114 38.6693 114.692 38.4482 115.354 38.4644C115.587 38.4701 115.808 38.5084 116.016 38.5794C116.227 38.6475 116.399 38.7281 116.532 38.8212C116.664 38.9114 116.782 39.0026 116.884 39.095C116.987 39.1874 117.061 39.2671 117.108 39.3342L117.173 39.4302L116.372 40.1926C116.349 40.1501 116.31 40.0937 116.255 40.0234C116.203 39.9532 116.085 39.862 115.902 39.7496C115.722 39.6344 115.53 39.5743 115.327 39.5693C115 39.5613 114.716 39.6757 114.474 39.9124C114.234 40.1493 114.11 40.4399 114.102 40.7842C114.093 41.1256 114.204 41.4204 114.435 41.6687C114.666 41.917 114.943 42.0452 115.266 42.0531C115.47 42.058 115.664 42.0134 115.849 41.919C116.037 41.8247 116.174 41.7292 116.261 41.6325L116.386 41.4827L117.103 42.2822C117.085 42.3058 117.058 42.3396 117.024 42.3837C116.993 42.4249 116.92 42.4965 116.803 42.5985C116.687 42.6975 116.562 42.7858 116.428 42.8635C116.295 42.9381 116.121 43.0072 115.906 43.0709C115.695 43.1317 115.473 43.1592 115.239 43.1535C114.577 43.1373 114.011 42.8898 113.541 42.4109Z" fill="#FE8B5E"/>
<path d="M119.298 38.7995L122.913 39.1809L122.439 43.6668L121.206 43.5367L121.563 40.1499L120.375 40.0245L120.346 40.3015C120.257 41.1385 120.116 41.7967 119.921 42.2761C119.729 42.7528 119.512 43.0658 119.27 43.215C119.032 43.3615 118.742 43.4167 118.399 43.3805C118.289 43.3689 118.181 43.344 118.077 43.3059C117.975 43.2711 117.9 43.2421 117.851 43.2188L117.775 43.1746L117.891 42.0755C117.98 42.115 118.069 42.1395 118.158 42.1489C118.34 42.1681 118.488 42.137 118.602 42.0557C118.716 41.9713 118.822 41.7701 118.919 41.4521C119.019 41.1313 119.102 40.6597 119.167 40.0371L119.298 38.7995Z" fill="#FE8B5E"/>
<path d="M124.952 44.404L125.147 44.1162L124.255 39.4044L125.522 39.6426L126.007 42.7783L127.602 40.0335L128.864 40.2708L126.219 44.6422C125.611 45.6526 124.937 46.0881 124.195 45.9487C124.063 45.9238 123.934 45.8874 123.809 45.8395C123.684 45.7916 123.592 45.7501 123.535 45.7149L123.452 45.6674L123.656 44.5856C123.765 44.6671 123.91 44.7248 124.09 44.7585C124.457 44.8277 124.745 44.7095 124.952 44.404Z" fill="#FE8B5E"/>
<path d="M133.48 41.5042L133.185 42.6159L131.227 42.0967L130.366 45.3451L129.167 45.0274L130.323 40.6672L133.48 41.5042Z" fill="#FE8B5E"/>
<path d="M140.819 45.4939L140.413 46.5217L137.333 45.3044L137.74 44.2765L140.819 45.4939Z" fill="#FE8B5E"/>
<path d="M148.306 48.1106C148.849 48.4098 149.201 48.8381 149.362 49.3956C149.527 49.9544 149.459 50.5054 149.16 51.0484C148.846 51.6177 148.388 51.9808 147.785 52.1376C147.186 52.2934 146.569 52.1963 145.935 51.8465C145.667 51.6991 145.427 51.526 145.215 51.3271C145.005 51.1324 144.846 50.9491 144.739 50.7772C144.634 50.6068 144.547 50.4478 144.478 50.3003C144.41 50.1501 144.371 50.0292 144.36 49.9376L144.327 49.8016L145.476 49.4393C145.489 49.5015 145.512 49.5822 145.543 49.6813C145.577 49.7792 145.679 49.9428 145.847 50.172C146.014 50.4012 146.216 50.5809 146.453 50.711C146.754 50.8772 147.035 50.926 147.295 50.8573C147.559 50.7874 147.764 50.6213 147.908 50.359C148.053 50.0966 148.082 49.8257 147.997 49.5461C147.914 49.268 147.733 49.0516 147.452 48.8969C147.258 48.79 147.065 48.7313 146.872 48.7209C146.679 48.7105 146.533 48.7255 146.432 48.7657L146.282 48.8321L145.48 48.2872L147.458 45.1711L150.882 47.0573L150.303 48.108L147.969 46.8223L147.31 47.8235C147.599 47.8082 147.931 47.9039 148.306 48.1106Z" fill="#FE8B5E"/>
<path d="M154.934 53.4468L152.906 56.1824L151.91 55.4438L154.597 51.8204L157.996 54.3412L155.31 57.9646L154.31 57.2233L156.338 54.4878L154.934 53.4468Z" fill="#FE8B5E"/>
<path d="M159.424 57.4359C159.108 57.4647 158.838 57.6062 158.614 57.8604C158.393 58.1124 158.288 58.3971 158.3 58.7147C158.314 59.03 158.433 59.2866 158.658 59.4844C158.883 59.6821 159.153 59.7677 159.467 59.7411C159.784 59.7122 160.053 59.5719 160.274 59.3199C160.498 59.0657 160.603 58.7798 160.592 58.4622C160.58 58.1447 160.461 57.887 160.236 57.6892C160.011 57.4915 159.741 57.407 159.424 57.4359ZM161.788 58.4617C161.838 59.127 161.656 59.6948 161.242 60.1649C160.829 60.6351 160.288 60.8895 159.62 60.9283C158.956 60.9667 158.382 60.7734 157.899 60.3482C157.415 59.923 157.149 59.3777 157.099 58.7123C157.052 58.0447 157.235 57.4758 157.649 57.0057C158.062 56.5355 158.602 56.2822 159.268 56.2457C159.936 56.207 160.512 56.4002 160.996 56.8254C161.479 57.2506 161.744 57.796 161.788 58.4617Z" fill="#FE8B5E"/>
<path d="M161.278 62.5843C161.281 61.9108 161.507 61.3563 161.957 60.921C162.407 60.4857 162.967 60.2789 163.638 60.3005C164.312 60.32 164.879 60.5676 165.339 61.0433C165.501 61.2112 165.632 61.3934 165.73 61.5899C165.833 61.7865 165.899 61.9644 165.928 62.1238C165.959 62.281 165.979 62.4286 165.987 62.5664C165.996 62.7042 165.993 62.8133 165.979 62.8935L165.958 63.0076L164.852 62.9894C164.866 62.943 164.878 62.8754 164.888 62.7866C164.9 62.7 164.88 62.5524 164.828 62.344C164.781 62.1356 164.686 61.9583 164.545 61.8119C164.318 61.5773 164.035 61.4593 163.696 61.458C163.359 61.4588 163.067 61.579 162.819 61.8185C162.574 62.0559 162.446 62.344 162.436 62.6828C162.427 63.0215 162.534 63.3071 162.759 63.5396C162.901 63.686 163.071 63.7904 163.269 63.853C163.469 63.9177 163.634 63.9459 163.763 63.9374L163.957 63.9183L163.908 64.9915C163.878 64.9952 163.835 65.0009 163.78 65.0084C163.729 65.0161 163.627 65.0154 163.472 65.0065C163.32 64.9956 163.169 64.9708 163.019 64.9324C162.871 64.8918 162.699 64.8191 162.501 64.7142C162.308 64.6093 162.131 64.4729 161.968 64.3051C161.508 63.8294 161.278 63.2558 161.278 62.5843Z" fill="#FE8B5E"/>
<path d="M167.915 64.0486L170.224 66.8558L166.74 69.7211L165.952 68.7634L168.582 66.6002L167.823 65.6772L167.608 65.8541C166.958 66.3887 166.395 66.7585 165.92 66.9633C165.449 67.1685 165.075 67.2395 164.798 67.1763C164.525 67.1136 164.28 66.9492 164.061 66.6832C163.99 66.5976 163.931 66.5046 163.884 66.4042C163.836 66.308 163.802 66.2346 163.784 66.1838L163.76 66.0985L164.614 65.3965C164.65 65.4872 164.696 65.5673 164.753 65.6367C164.869 65.7778 164.996 65.8593 165.135 65.8813C165.275 65.9014 165.492 65.832 165.784 65.6732C166.08 65.5148 166.47 65.2368 166.954 64.8392L167.915 64.0486Z" fill="#FE8B5E"/>
<path d="M168.013 72.0085L168.355 71.9408L171.023 67.9563L171.759 69.0149L169.906 71.59L172.968 70.7523L173.701 71.8072L168.749 73.0672C167.608 73.3613 166.821 73.1985 166.39 72.5788C166.313 72.4681 166.247 72.3519 166.192 72.23C166.136 72.1081 166.1 72.0145 166.084 71.9492L166.058 71.8574L166.962 71.229C166.983 71.364 167.046 71.5066 167.15 71.6566C167.364 71.9639 167.651 72.0813 168.013 72.0085Z" fill="#FE8B5E"/>
<path d="M176.126 75.9242L175.136 76.5099L174.104 74.7661L171.212 76.4774L170.581 75.4102L174.463 73.1132L176.126 75.9242Z" fill="#FE8B5E"/>
<path d="M178.558 83.9158L177.548 84.3633L176.207 81.3358L177.218 80.8882L178.558 83.9158Z" fill="#FE8B5E"/>
<path d="M182.059 91.0316C182.236 91.6257 182.187 92.1781 181.911 92.6886C181.636 93.2019 181.201 93.5472 180.607 93.7244C179.984 93.9101 179.403 93.8475 178.863 93.5365C178.327 93.2275 177.956 92.7257 177.749 92.0311C177.661 91.7383 177.612 91.4467 177.6 91.1564C177.587 90.8698 177.602 90.6277 177.646 90.4301C177.691 90.2353 177.741 90.0611 177.795 89.9074C177.852 89.7529 177.909 89.6391 177.965 89.566L178.037 89.4461L179.11 89.9935C179.076 90.0474 179.035 90.1205 178.988 90.2128C178.944 90.3071 178.902 90.4948 178.86 90.7759C178.819 91.057 178.837 91.3267 178.914 91.585C179.013 91.9151 179.179 92.1469 179.412 92.2804C179.65 92.4159 179.912 92.4408 180.199 92.3553C180.486 92.2697 180.697 92.0973 180.832 91.8382C180.968 91.5819 180.991 91.3002 180.899 90.9931C180.836 90.7807 180.739 90.6032 180.609 90.4607C180.479 90.3182 180.364 90.2259 180.264 90.1839L180.111 90.1264L179.921 89.1751L183.517 88.3418L184.634 92.0875L183.484 92.4303L182.723 89.8772L181.551 90.1283C181.767 90.32 181.937 90.6211 182.059 91.0316Z" fill="#FE8B5E"/>
<path d="M183.04 99.4849L179.676 100.012L179.484 98.7868L183.94 98.0888L184.595 102.27L180.139 102.968L179.946 101.739L183.311 101.212L183.04 99.4849Z" fill="#FE8B5E"/>
<path d="M183.442 105.477C183.197 105.276 182.905 105.187 182.567 105.212C182.233 105.236 181.958 105.365 181.744 105.6C181.533 105.835 181.438 106.101 181.46 106.4C181.481 106.699 181.614 106.949 181.856 107.151C182.102 107.352 182.392 107.441 182.727 107.416C183.065 107.392 183.34 107.262 183.555 107.028C183.769 106.793 183.865 106.526 183.844 106.227C183.822 105.929 183.688 105.679 183.442 105.477ZM184.408 107.867C183.977 108.375 183.449 108.652 182.824 108.698C182.2 108.743 181.636 108.545 181.133 108.104C180.632 107.666 180.359 107.125 180.313 106.483C180.266 105.841 180.459 105.265 180.89 104.756C181.325 104.248 181.854 103.97 182.479 103.925C183.103 103.88 183.666 104.078 184.166 104.519C184.669 104.96 184.944 105.502 184.991 106.144C185.037 106.787 184.843 107.361 184.408 107.867Z" fill="#FE8B5E"/>
<path d="M181.153 110.447C181.627 109.969 182.177 109.732 182.803 109.738C183.429 109.743 183.974 109.989 184.437 110.475C184.903 110.961 185.133 111.535 185.128 112.197C185.126 112.431 185.091 112.652 185.023 112.861C184.959 113.073 184.881 113.246 184.79 113.38C184.702 113.514 184.612 113.633 184.522 113.737C184.431 113.842 184.352 113.917 184.286 113.965L184.191 114.031L183.416 113.243C183.458 113.219 183.514 113.179 183.583 113.123C183.653 113.07 183.742 112.951 183.851 112.766C183.964 112.584 184.021 112.391 184.023 112.188C184.025 111.861 183.906 111.579 183.666 111.34C183.425 111.104 183.133 110.985 182.788 110.982C182.447 110.979 182.154 111.095 181.909 111.33C181.664 111.564 181.541 111.843 181.538 112.167C181.536 112.37 181.584 112.564 181.681 112.748C181.779 112.934 181.876 113.07 181.975 113.154L182.126 113.277L181.338 114.007C181.315 113.989 181.28 113.963 181.236 113.93C181.194 113.9 181.121 113.827 181.017 113.712C180.917 113.598 180.826 113.474 180.746 113.342C180.67 113.209 180.598 113.036 180.531 112.823C180.467 112.613 180.435 112.391 180.437 112.158C180.443 111.496 180.681 110.925 181.153 110.447Z" fill="#FE8B5E"/>
<path d="M184.856 116.146L184.533 119.766L180.04 119.365L180.15 118.13L183.542 118.433L183.649 117.242L183.371 117.218C182.533 117.143 181.872 117.012 181.39 116.824C180.91 116.64 180.594 116.428 180.441 116.189C180.29 115.953 180.231 115.664 180.261 115.321C180.271 115.21 180.294 115.102 180.331 114.997C180.364 114.895 180.392 114.819 180.414 114.77L180.457 114.693L181.558 114.791C181.52 114.881 181.497 114.971 181.489 115.06C181.473 115.242 181.506 115.39 181.589 115.502C181.675 115.615 181.878 115.718 182.198 115.809C182.52 115.904 182.993 115.98 183.617 116.035L184.856 116.146Z" fill="#FE8B5E"/>
<path d="M179.343 121.888L179.634 122.079L184.331 121.111L184.113 122.382L180.985 122.917L183.755 124.468L183.538 125.734L179.125 123.159C178.105 122.568 177.659 121.9 177.786 121.156C177.809 121.023 177.843 120.894 177.889 120.768C177.935 120.642 177.975 120.55 178.009 120.493L178.056 120.409L179.141 120.595C179.061 120.706 179.005 120.852 178.975 121.032C178.911 121.401 179.034 121.686 179.343 121.888Z" fill="#FE8B5E"/>
<path d="M182.379 130.369L181.262 130.092L181.75 128.126L178.488 127.317L178.787 126.113L183.165 127.199L182.379 130.369Z" fill="#FE8B5E"/>
<path d="M178.507 137.772L177.473 137.382L178.641 134.283L179.675 134.673L178.507 137.772Z" fill="#FE8B5E"/>
<path d="M176.011 145.299C175.721 145.847 175.298 146.206 174.743 146.376C174.187 146.549 173.635 146.49 173.087 146.2C172.513 145.895 172.143 145.443 171.976 144.843C171.811 144.247 171.898 143.628 172.238 142.988C172.381 142.718 172.55 142.476 172.745 142.26C172.937 142.047 173.117 141.885 173.288 141.775C173.456 141.668 173.614 141.579 173.76 141.507C173.909 141.437 174.03 141.396 174.121 141.383L174.256 141.348L174.637 142.491C174.575 142.505 174.495 142.529 174.396 142.561C174.299 142.598 174.137 142.702 173.91 142.873C173.684 143.045 173.508 143.249 173.381 143.488C173.22 143.792 173.176 144.074 173.249 144.333C173.323 144.596 173.492 144.797 173.757 144.938C174.021 145.078 174.293 145.103 174.571 145.013C174.848 144.926 175.061 144.741 175.211 144.458C175.315 144.262 175.371 144.068 175.378 143.875C175.385 143.682 175.368 143.536 175.326 143.436L175.257 143.287L175.789 142.476L178.937 144.404L177.105 147.858L176.046 147.296L177.294 144.942L176.282 144.299C176.302 144.587 176.212 144.921 176.011 145.299Z" fill="#FE8B5E"/>
<path d="M170.781 152.012L168.014 150.028L168.736 149.02L172.402 151.649L169.936 155.088L166.27 152.46L166.995 151.448L169.763 153.433L170.781 152.012Z" fill="#FE8B5E"/>
<path d="M166.865 156.566C166.831 156.25 166.685 155.982 166.428 155.763C166.172 155.545 165.886 155.445 165.568 155.462C165.253 155.481 164.999 155.604 164.805 155.833C164.61 156.061 164.529 156.332 164.561 156.646C164.595 156.962 164.739 157.228 164.995 157.446C165.253 157.665 165.54 157.766 165.858 157.749C166.175 157.732 166.431 157.61 166.625 157.382C166.819 157.154 166.899 156.882 166.865 156.566ZM165.877 158.946C165.213 159.006 164.642 158.833 164.166 158.427C163.689 158.022 163.426 157.485 163.376 156.818C163.327 156.154 163.511 155.577 163.929 155.087C164.346 154.597 164.887 154.322 165.552 154.262C166.218 154.204 166.79 154.378 167.267 154.784C167.743 155.189 168.005 155.725 168.053 156.39C168.102 157.058 167.918 157.637 167.501 158.127C167.083 158.618 166.542 158.891 165.877 158.946Z" fill="#FE8B5E"/>
<path d="M161.747 158.502C162.42 158.494 162.978 158.711 163.421 159.154C163.863 159.597 164.079 160.154 164.068 160.825C164.059 161.499 163.821 162.069 163.353 162.537C163.187 162.702 163.007 162.836 162.812 162.937C162.618 163.043 162.441 163.112 162.282 163.144C162.125 163.177 161.978 163.2 161.84 163.21C161.703 163.221 161.593 163.219 161.513 163.207L161.399 163.188L161.399 162.082C161.446 162.095 161.513 162.105 161.602 162.114C161.689 162.125 161.836 162.102 162.044 162.047C162.252 161.997 162.427 161.899 162.571 161.755C162.802 161.525 162.916 161.24 162.912 160.901C162.906 160.564 162.781 160.274 162.537 160.03C162.296 159.789 162.006 159.666 161.667 159.661C161.328 159.657 161.044 159.769 160.815 159.998C160.671 160.142 160.57 160.313 160.51 160.512C160.449 160.713 160.423 160.879 160.434 161.008L160.456 161.202L159.382 161.169C159.378 161.14 159.372 161.097 159.363 161.042C159.355 160.992 159.354 160.889 159.36 160.734C159.369 160.582 159.391 160.43 159.427 160.28C159.465 160.132 159.535 159.958 159.637 159.759C159.739 159.564 159.872 159.384 160.037 159.219C160.506 158.751 161.075 158.512 161.747 158.502Z" fill="#FE8B5E"/>
<path d="M160.389 165.161L157.619 167.515L154.699 164.077L155.644 163.274L157.849 165.869L158.759 165.096L158.579 164.883C158.034 164.242 157.655 163.685 157.443 163.213C157.23 162.745 157.153 162.373 157.212 162.095C157.27 161.821 157.431 161.573 157.693 161.35C157.778 161.278 157.87 161.217 157.969 161.168C158.065 161.119 158.138 161.084 158.188 161.065L158.273 161.04L158.989 161.882C158.899 161.919 158.819 161.967 158.751 162.025C158.612 162.144 158.532 162.272 158.512 162.411C158.494 162.552 158.567 162.767 158.731 163.056C158.894 163.35 159.178 163.736 159.583 164.213L160.389 165.161Z" fill="#FE8B5E"/>
<path d="M152.432 165.387L152.505 165.727L156.532 168.332L155.485 169.085L152.88 167.273L153.767 170.321L152.724 171.071L151.385 166.14C151.073 165.003 151.223 164.214 151.835 163.774C151.945 163.695 152.06 163.627 152.181 163.569C152.302 163.512 152.395 163.474 152.46 163.457L152.551 163.43L153.194 164.324C153.06 164.347 152.918 164.412 152.77 164.518C152.466 164.737 152.353 165.027 152.432 165.387Z" fill="#FE8B5E"/>
<path d="M148.647 173.561L148.045 172.581L149.772 171.521L148.015 168.657L149.072 168.008L151.431 171.853L148.647 173.561Z" fill="#FE8B5E"/>
<path d="M81.9648 98.5586C79.832 101.441 78.7656 105.52 78.7656 110.793C78.7656 116.066 79.832 120.145 81.9648 123.027C84.0977 125.91 86.6289 127.352 89.5586 127.352C92.4883 127.352 95.0195 125.91 97.1523 123.027C99.2852 120.145 100.352 116.066 100.352 110.793C100.352 105.52 99.2852 101.441 97.1523 98.5586C95.0195 95.6758 92.4883 94.2344 89.5586 94.2344C86.6289 94.2344 84.0977 95.6758 81.9648 98.5586ZM104.852 91.7734C109.047 96.5781 111.145 102.918 111.145 110.793C111.145 118.668 109.047 125.02 104.852 129.848C100.656 134.676 95.5586 137.09 89.5586 137.09C83.5586 137.09 78.4609 134.676 74.2656 129.848C70.0703 125.02 67.9727 118.668 67.9727 110.793C67.9727 102.918 70.0703 96.5781 74.2656 91.7734C78.4609 86.9453 83.5586 84.5312 89.5586 84.5312C95.5586 84.5312 100.656 86.9453 104.852 91.7734ZM139.586 102.531C144.438 102.531 148.469 104.137 151.68 107.348C154.914 110.559 156.531 114.59 156.531 119.441C156.531 124.527 154.762 128.746 151.223 132.098C147.707 135.426 143.113 137.09 137.441 137.09C135.051 137.09 132.754 136.809 130.551 136.246C128.371 135.707 126.59 135.051 125.207 134.277C123.848 133.504 122.652 132.742 121.621 131.992C120.59 131.219 119.863 130.539 119.441 129.953L118.703 129.145L125.207 122.324C125.535 122.699 125.992 123.168 126.578 123.73C127.188 124.27 128.5 125.008 130.516 125.945C132.531 126.883 134.594 127.352 136.703 127.352C139.398 127.352 141.508 126.625 143.031 125.172C144.578 123.695 145.352 121.785 145.352 119.441C145.352 117.098 144.531 115.129 142.891 113.535C141.273 111.941 139.211 111.145 136.703 111.145C134.969 111.145 133.422 111.473 132.062 112.129C130.703 112.785 129.754 113.441 129.215 114.098L128.441 115.117L120.883 114.414L122.676 85.5859H153.262V94.9727H132.414L131.676 104.324C133.598 103.129 136.234 102.531 139.586 102.531Z" fill="url(#paint0_linear_138_0)"/>
<defs>
<filter id="filter0_d_138_0" x="0.253731" y="0.616915" width="224.493" height="224.493" filterUnits="userSpaceOnUse" color-interpolation-filters="sRGB">
<feFlood flood-opacity="0" result="BackgroundImageFix"/>
<feColorMatrix in="SourceAlpha" type="matrix" values="0 0 0 0 0 0 0 0 0 0 0 0 0 0 0 0 0 0 127 0" result="hardAlpha"/>
<feOffset dy="3.36318"/>
<feGaussianBlur stdDeviation="13.8731"/>
<feColorMatrix type="matrix" values="0 0 0 0 0.958385 0 0 0 0 0.958385 0 0 0 0 0.958385 0 0 0 1 0"/>
<feBlend mode="normal" in2="BackgroundImageFix" result="effect1_dropShadow_138_0"/>
<feBlend mode="normal" in="SourceGraphic" in2="effect1_dropShadow_138_0" result="shape"/>
</filter>
<linearGradient id="paint0_linear_138_0" x1="141.44" y1="127.017" x2="96.183" y2="56.2469" gradientUnits="userSpaceOnUse">
<stop stop-color="#5690FF" stop-opacity="0.54"/>
<stop offset="0.930208" stop-color="#8BB2FF" stop-opacity="0.0376876"/>
<stop offset="1" stop-opacity="0"/>
</linearGradient>
</defs>
</svg>
