<svg width="28" height="28" viewBox="0 0 28 28" fill="none" xmlns="http://www.w3.org/2000/svg">
<path fill-rule="evenodd" clip-rule="evenodd" d="M10.6262 18.707C15.8164 18.707 20.2525 19.5348 20.2525 22.8417C20.2525 26.1485 15.846 27 10.6262 27C5.43466 27 1 26.1796 1 22.8713C1 19.563 5.40511 18.707 10.6262 18.707Z" stroke="#FD8D62" stroke-width="1.7" stroke-linecap="round" stroke-linejoin="round"/>
<path fill-rule="evenodd" clip-rule="evenodd" d="M10.6264 13.9874C7.21879 13.9874 4.45557 11.0804 4.45557 7.49371C4.45557 3.90699 7.21879 1 10.6264 1C14.0326 1 16.7958 3.90699 16.7958 7.49371C16.8084 11.0671 14.0649 13.9741 10.67 13.9874H10.6264Z" stroke="#FD8D62" stroke-width="1.7" stroke-linecap="round" stroke-linejoin="round"/>
<path d="M20.3218 12.3019C22.5743 11.9687 24.309 9.93392 24.3132 7.47119C24.3132 5.04401 22.632 3.03 20.4273 2.64941" stroke="#FD8D62" stroke-width="1.7" stroke-linecap="round" stroke-linejoin="round"/>
<path d="M23.2939 18.0042C25.4761 18.3462 26.9998 19.1518 26.9998 20.8104C26.9998 21.9522 26.2823 22.6927 25.123 23.1562" stroke="#FD8D62" stroke-width="1.7" stroke-linecap="round" stroke-linejoin="round"/>
</svg>
