<svg width="28" height="28" viewBox="0 0 28 28" fill="none" xmlns="http://www.w3.org/2000/svg">
<path fill-rule="evenodd" clip-rule="evenodd" d="M15.595 2.03542L18.2346 7.61892C18.4933 8.16706 18.9927 8.54715 19.5717 8.6351L25.4766 9.53506C26.9355 9.75808 27.5161 11.6302 26.4602 12.703L22.1903 17.0473C21.7706 17.4745 21.5796 18.0886 21.6789 18.6917L22.6866 24.8249C22.9348 26.3421 21.4097 27.4996 20.1057 26.7819L14.828 23.8841C14.3106 23.5998 13.6909 23.5998 13.172 23.8841L7.89434 26.7819C6.59033 27.4996 5.06524 26.3421 5.31491 24.8249L6.32111 18.6917C6.42038 18.0886 6.22936 17.4745 5.80974 17.0473L1.53976 12.703C0.483922 11.6302 1.06448 9.75808 2.5234 9.53506L8.42827 8.6351C9.00733 8.54715 9.50818 8.16706 9.76687 7.61892L12.405 2.03542C13.0577 0.65486 14.9423 0.65486 15.595 2.03542Z" stroke="#FD8D62" stroke-width="1.7" stroke-linecap="round" stroke-linejoin="round"/>
</svg>
